<?xml version="1.0" encoding="utf-8"?>
<!-- Generator: Adobe Illustrator 26.3.1, SVG Export Plug-In . SVG Version: 6.00 Build 0)  -->
<svg version="1.1" id="Layer_1" xmlns="http://www.w3.org/2000/svg" xmlns:xlink="http://www.w3.org/1999/xlink" x="0px" y="0px"
	 viewBox="0 0 121.1 114.3" style="enable-background:new 0 0 121.1 114.3;" xml:space="preserve">
<g id="Layer_2_00000069384053673272218740000009888585181863908009_">
	<g id="Layer_1-2">
		<path d="M72,54.9c-1.5,0-2.8,0.8-3.5,2.1c-0.8,1.1-1.5,2.2-2.5,3.7c1.8,1.7,3.4,3.6,4.8,5.7l-0.2,0.3c-1.3,0-2.6-0.4-3.8-1.1
			c-0.4-0.4-1.6-1.7-2.5-2.7c-2.1,2.7-4,3.7-6,3.7c-3.7,0-5.8-2.7-5.8-5.2s1.8-3.7,4.3-5.4c-1.3-1-2-2.4-2.1-4
			c0.1-2.6,2.3-4.6,4.9-4.5c2.3-0.2,4.2,1.5,4.4,3.8c0,0.1,0,0.1,0,0.2c0,1-0.4,1.9-1.2,2.5c-0.7,0.6-1.5,1.2-2.3,1.7
			c1,0.8,3,2.5,4.9,4.3c0.7-1,1.2-2.1,1.7-3.2c0.5-1.3,0.3-1.7-1.8-1.9v-0.8H72V54.9z M59.2,64.6c1.8-0.1,3.4-1,4.5-2.4
			c-1.9-2-3.9-3.8-6.1-5.4c-1.8,1.2-2.4,2.5-2.4,3.8C55.2,62.8,56.9,64.6,59.2,64.6C59.1,64.6,59.1,64.6,59.2,64.6L59.2,64.6z
			 M59.3,48.6c-1.4,0.1-2.4,1.3-2.3,2.7v0.1c0,1.5,0.9,2.4,2.7,3.8c1.3-0.8,2-2.1,2.1-3.6C61.7,49.9,60.7,48.5,59.3,48.6L59.3,48.6z
			"/>
		<polygon points="100.4,12.9 70.6,12.9 70.6,17.3 75.1,19.7 75.1,38.8 82.4,38.8 82.4,19.1 89.1,19.1 89.1,45.5 71.6,45.5 
			60.3,37.1 49.1,45.5 31.4,45.5 31.4,19.1 38,19.1 38,38.8 45.3,38.8 45.1,19.6 49.8,16.8 49.8,12.9 19.6,12.9 19.6,16.4 
			24.2,19.7 24.2,45.2 19.6,47.5 19.6,52 49.3,52 60.3,43.6 72,52 100.4,52 100.4,47.8 96.7,45.4 96.4,19.9 100.4,17.3 		"/>
		<polygon points="19.6,101.3 49.5,101.3 49.5,97 44.9,94.6 44.9,75.4 37.6,75.4 37.6,95.2 31,95.2 31,68.8 48.4,68.8 59.8,77.2 
			70.9,68.8 88.6,68.8 88.6,95.2 82,95.2 82,75.4 74.8,75.4 74.9,94.7 70.2,97.5 70.2,101.3 100.4,101.3 100.4,97.9 95.8,94.6 
			95.8,69.1 100.4,66.8 100.4,62.3 70.7,62.3 59.8,70.7 48.1,62.3 19.6,62.3 19.6,66.5 23.3,68.9 23.7,94.4 19.6,97 		"/>
		<polygon points="15.7,43.3 15.7,26.5 15.7,8.2 34,8.3 40.2,5.1 40.2,0 0,0 0,4.6 6,9.1 6,43 0,46 0,52 15.7,52 		"/>
		<polygon points="121.1,0 81.4,0 81.4,5.8 87.4,8.3 106,8.2 106,26.5 106,43.3 106,52 121.1,52 121.1,46.4 116.2,43.2 115.7,9.3 
			121.1,5.8 		"/>
		<polygon points="105.4,71 105.4,87.8 105.4,106.1 87.1,106 81,109.2 81,114.3 121.1,114.3 121.1,109.7 115.1,105.3 115.1,71.4 
			121.1,68.3 121.1,62.3 105.4,62.3 		"/>
		<polygon points="0,114.3 39.7,114.3 39.7,108.5 33.7,106 15.1,106.1 15.1,87.8 15.1,71 15.1,62.3 0,62.3 0,67.9 4.9,71.1 5.4,105 
			0,108.5 		"/>
	</g>
</g>
</svg>
